<?xml version="1.0" standalone="no"?>
<!DOCTYPE svg PUBLIC "-//W3C//DTD SVG 20010904//EN"
 "http://www.w3.org/TR/2001/REC-SVG-20010904/DTD/svg10.dtd">
<svg version="1.0" xmlns="http://www.w3.org/2000/svg"
 width="1280.000000pt" height="1229.000000pt" viewBox="0 0 1280.000000 1229.000000"
 preserveAspectRatio="xMidYMid meet">
<metadata>
Created by potrace 1.15, written by Peter Selinger 2001-2017
</metadata>
<g transform="translate(0.000000,1229.000000) scale(0.100000,-0.100000)"
fill="#000000" stroke="none">
<path d="M5860 12281 c-82 -25 -141 -75 -180 -151 l-19 -37 -88 -7 c-484 -39
-809 -309 -908 -753 -159 -724 254 -1894 1072 -3035 77 -108 83 -121 77 -152
-10 -55 13 -102 104 -215 705 -874 1499 -1476 2225 -1687 112 -32 296 -69 377
-76 l35 -3 -3 -90 c-15 -414 -121 -795 -293 -1052 -71 -107 -225 -258 -332
-327 -240 -157 -520 -237 -926 -267 -233 -17 -814 8 -840 37 -5 5 -36 74 -69
154 -275 662 -676 1262 -1155 1727 l-125 122 18 48 c44 119 51 296 15 428 -36
134 -134 283 -242 366 -80 63 -137 94 -229 126 -72 25 -92 27 -219 27 -127 0
-147 -2 -220 -27 -113 -40 -209 -100 -290 -182 -83 -84 -135 -170 -172 -280
-24 -72 -27 -95 -27 -220 0 -125 3 -148 27 -220 73 -219 244 -389 464 -463 69
-23 94 -26 218 -26 128 0 147 2 220 28 86 29 167 72 216 113 l29 25 54 -46
c30 -26 102 -97 160 -159 374 -401 667 -842 913 -1377 38 -83 49 -116 40 -118
-32 -7 -562 92 -1007 188 -124 27 -486 108 -805 180 -1036 235 -1201 268
-1484 295 -1329 128 -2288 -556 -2468 -1761 -24 -165 -24 -540 0 -709 79 -538
287 -1022 629 -1463 101 -130 358 -390 488 -493 523 -417 1136 -659 1860 -735
118 -12 203 -15 359 -10 918 29 1643 256 2181 683 111 88 298 276 382 383 301
388 473 831 539 1385 20 163 17 603 -5 790 -30 259 -78 506 -149 764 l-34 123
51 -6 c115 -14 624 -19 752 -7 700 64 1153 295 1451 741 199 297 306 676 341
1200 l7 105 35 3 c81 7 265 44 377 76 699 204 1442 754 2141 1586 169 202 197
249 187 310 -6 37 -2 45 78 157 592 827 975 1668 1084 2380 11 73 16 174 17
313 0 227 -16 333 -74 491 -130 356 -438 572 -866 605 l-89 7 -23 48 c-28 58
-89 111 -155 133 -68 23 -697 24 -773 1 -153 -45 -232 -232 -160 -379 29 -59
64 -94 130 -129 40 -21 52 -22 393 -25 227 -2 366 1 392 8 65 17 133 69 169
130 l32 56 88 -8 c447 -42 709 -290 772 -733 13 -92 13 -301 0 -423 -72 -664
-483 -1583 -1067 -2387 -71 -97 -84 -110 -112 -112 -58 -4 -84 -27 -214 -183
-188 -226 -334 -385 -519 -566 -639 -623 -1276 -982 -1853 -1045 -510 -55
-1125 186 -1747 684 -323 258 -614 552 -975 987 -81 98 -110 119 -164 123 -28
2 -41 15 -112 112 -502 691 -891 1495 -1021 2111 -107 510 -63 901 129 1147
123 156 343 261 597 285 l88 8 32 -56 c36 -61 104 -113 169 -130 26 -7 165
-10 392 -8 341 3 353 4 393 25 66 35 101 70 130 129 72 147 -4 328 -157 377
-44 15 -101 17 -393 16 -187 0 -352 -4 -366 -8z m-3350 -7422 c221 -24 472
-75 1430 -292 1040 -237 1294 -288 1922 -388 l68 -11 31 -96 c210 -658 259
-1344 133 -1907 -74 -335 -231 -667 -433 -918 -404 -501 -1058 -810 -1904
-902 -229 -24 -529 -36 -658 -25 -949 82 -1729 490 -2243 1174 -706 939 -724
2198 -41 2881 289 288 678 454 1160 495 116 10 396 4 535 -11z"/>
</g>
</svg>
